<svg id="Layer_1" data-name="Layer 1" xmlns="http://www.w3.org/2000/svg" viewBox="0 0 94.2 106.17"><defs><style>.cls-1{fill:#fff;}</style></defs><title>emerge_logo</title><path class="cls-1" d="M93.93,63.19q-0.18-8.54-.34-17.08-0.17-8.88-.35-17.76a5.58,5.58,0,0,0-3.05-5.07Q69.72,12.05,49.23.85A5.94,5.94,0,0,0,42.91,1L17.1,16.48c-2.49,1.5-5,3-7.45,4.51C7.36,22.36,5,23.7,2.76,25.11a5.54,5.54,0,0,0-2.76,5C0,32,0,33.94.09,35.85,0.24,41.94.34,48,.46,54.12Q0.57,59.56.68,65c0.08,4.29.18,8.59,0.24,12.88a5.89,5.89,0,0,0,.82,2.84C1.9,81,2,81.11,2.36,80.86c1.51-1.14,3-2.24,4.57-3.36q8.19-6,16.38-12a0.43,0.43,0,0,0,.15-0.64,27,27,0,0,1-2.07-9.32,30.23,30.23,0,0,1,1-9.25,27.18,27.18,0,0,1,4.81-9.54,39.91,39.91,0,0,1,3.83-4A24.91,24.91,0,0,1,38.88,28a26.72,26.72,0,0,1,13-1.29,23.64,23.64,0,0,1,10.29,3.77,22.29,22.29,0,0,1,8,8.34,0.94,0.94,0,0,1-.23,1.3,6,6,0,0,1-.63.48l-14.08,9-8.08,5.22h0a2.37,2.37,0,0,0-.25.12Q41.34,58.48,35.82,62c-4.75,3.06-9.46,6.18-14.3,9.09C15.67,74.61,9.85,78.17,4,81.72a1.42,1.42,0,0,0-.83.58,1.24,1.24,0,0,0,.85.64l41.09,22.45a5.7,5.7,0,0,0,6-.12q8.51-5.07,17-10.18l14.47-8.7c3.07-1.84,6.19-3.61,9.2-5.54a5.3,5.3,0,0,0,2.44-4.71C94.15,71.82,94,67.51,93.93,63.19ZM61.79,77.7a25.92,25.92,0,0,1-10.31,3.67,24.56,24.56,0,0,1-4.27.23,26,26,0,0,1-18.89-9c-0.25-.28-0.49-0.57-0.73-0.86-0.06-.07-0.11-0.15-0.19-0.27,1.52-.85,3-1.69,4.54-2.55,0.33-.19.44,0,0.6,0.22a23.14,23.14,0,0,0,5.2,4.26,19.52,19.52,0,0,0,8,2.62A20.64,20.64,0,0,0,63,69.92a2.43,2.43,0,0,0,.38-0.54h0a2.63,2.63,0,0,0,.93-0.94A22,22,0,0,0,66,66a2.21,2.21,0,0,1,2.75-1.2A3,3,0,0,1,71,67.68a3.67,3.67,0,0,1-.6,1.56,34.87,34.87,0,0,1-2.7,3.62A29.57,29.57,0,0,1,61.79,77.7Z"/><path class="cls-1" d="M28.67,61.95c1.15-.79,2.32-1.56,3.47-2.33l7.4-5c2.2-1.46,4.41-2.91,6.6-4.39,3.5-2.36,7-4.69,10.52-7.07,2.12-1.45,4.28-2.85,6.44-4.25,0.29-.19.37-0.3,0.08-0.59a24.71,24.71,0,0,0-2.94-2.58,20.16,20.16,0,0,0-15-3.7,21.35,21.35,0,0,0-9,3.62A19,19,0,0,0,28.64,45c0,0.08-.09.17-0.12,0.25a26.64,26.64,0,0,0-1.65,9,21.73,21.73,0,0,0,1.24,7.59C28.25,62.16,28.38,62.14,28.67,61.95Z"/></svg>